<?xml version="1.0" encoding="UTF-8"?>
<svg id="Layer_1" data-name="Layer 1" xmlns="http://www.w3.org/2000/svg" viewBox="0 0 64 64">
  <defs>
    <style>
      .cls-1 {
        fill: #fff;
      }
    </style>
  </defs>
  <rect x="-.08" y="-.08" width="64.17" height="64.17" rx="10.85" ry="10.85"/>
  <g>
    <path class="cls-1" d="M16.17,15.12c-1.92,0-3.48,1.34-3.48,2.98v19.57c0,1.65,1.56,2.98,3.48,2.98s3.48-1.34,3.48-2.98v-19.57c0-1.65-1.56-2.98-3.48-2.98Z"/>
    <path class="cls-1" d="M26.72,8.33c-1.92,0-3.48,1.56-3.48,3.48v40.39c0,1.92,1.56,3.48,3.48,3.48s3.48-1.56,3.48-3.48V11.81c0-1.92-1.56-3.48-3.48-3.48Z"/>
    <path class="cls-1" d="M37.28,11.39c-1.92,0-3.48,1.79-3.48,4.01v31.86c0,2.21,1.56,4.01,3.48,4.01s3.48-1.79,3.48-4.01V15.39c0-2.21-1.56-4.01-3.48-4.01Z"/>
    <path class="cls-1" d="M47.83,23.73c-1.92,0-3.48,1.56-3.48,3.48v15.8c0,1.92,1.56,3.48,3.48,3.48s3.48-1.56,3.48-3.48v-15.8c0-1.92-1.56-3.48-3.48-3.48Z"/>
  </g>
</svg>